#!OML:ASF F:\VICON\USERDATA\INSTALL\rory3\rory3.ASF
:FULLY-SPECIFIED
:DEGREES
514
root -17.2601 17.6853 13.596 23.6616 -85.8411 -25.4136
lowerback 9.66105 3.88117 2.17251
upperback -0.408632 5.43561 0.506581
thorax -5.68253 2.61342 -1.46118
lowerneck -25.2529 -1.0602 -7.26903
upperneck 29.0521 -0.143241 4.22005
head 14.1853 -0.36156 2.89951
rclavicle -5.9564e-014 4.12478e-015
rhumerus -28.6435 -10.6623 -78.5743
rradius 32.749
rwrist 4.55398
rhand -15.5436 11.1341
rfingers 7.12502
rthumb 10.6404 -18.5765
lclavicle -5.9564e-014 4.12478e-015
lhumerus -35.5782 3.08905 84.8609
lradius 31.6362
lwrist -5.62627
lhand -19.167 24.5924
lfingers 7.12502
lthumb 7.14394 54.4518
rfemur 6.83191 -0.490145 25.5268
rtibia 23.9266
rfoot -18.6739 -8.50253
rtoes 2.10031
lfemur -17.7583 3.47181 -21.3987
ltibia 19.1023
lfoot 3.58606 2.78752
ltoes 2.3884
515
root -17.3602 17.6846 13.6091 17.1715 -85.9633 -19.0066
lowerback 9.62451 3.97213 1.63756
upperback -0.411521 5.4858 0.325041
thorax -5.695 2.65186 -1.35858
lowerneck -25.1768 -1.10022 -7.38913
upperneck 29.1608 -0.247498 4.46364
head 14.2241 -0.388817 3.00233
rclavicle -7.77186e-014 -2.73329e-015
rhumerus -28.769 -11.4323 -78.5887
rradius 32.5891
rwrist 5.0222
rhand -15.4861 11.3844
rfingers 7.12502
rthumb 10.6959 -18.3233
lclavicle -7.77186e-014 -2.73329e-015
lhumerus -35.3915 3.23515 84.5993
lradius 31.3869
lwrist -5.69441
lhand -19.33 24.723
lfingers 7.12502
lthumb 6.98659 54.5877
rfemur 6.58717 -0.732765 25.0057
rtibia 25.1095
rfoot -18.3147 -9.06719
rtoes -0.874431
lfemur -17.2288 3.55607 -21.9565
ltibia 19.15
lfoot 3.17444 2.68201
ltoes 0.841646
516
root -17.4579 17.6827 13.6229 9.7811 -85.9161 -11.6667
lowerback 9.57934 4.0202 1.13995
upperback -0.396029 5.48169 0.132403
thorax -5.68068 2.66249 -1.27892
lowerneck -25.319 -1.13047 -7.48976
upperneck 29.3505 -0.288556 4.59794
head 14.3405 -0.403023 3.07426
rclavicle 8.58792e-014 3.65267e-015
rhumerus -28.8514 -12.3906 -78.5863
rradius 32.4512
rwrist 5.43392
rhand -15.6374 11.2314
rfingers 7.12502
rthumb 10.5499 -18.4838
lclavicle 8.58792e-014 3.65267e-015
lhumerus -35.1505 3.62489 84.2881
lradius 31.0705
lwrist -5.78691
lhand -19.2749 24.7705
lfingers 7.12502
lthumb 7.03977 54.6334
rfemur 6.25356 -0.979838 24.4961
rtibia 26.4813
rfoot -18.0066 -9.60827
rtoes -3.59002
lfemur -16.7522 3.78446 -22.5672
ltibia 19.1175
lfoot 2.73624 2.04864
ltoes -1.43277
517
root -17.5525 17.6885 13.6384 2.67355 -85.7297 -4.65539
lowerback 9.61469 4.04073 0.73749
upperback -0.388248 5.45024 -0.0946035
thorax -5.70816 2.6551 -1.29024
lowerneck -25.3835 -1.13538 -7.416
upperneck 29.4784 -0.305353 4.53865
head 14.4118 -0.414 3.03848
rclavicle -4.28579e-014 2.52208e-015
rhumerus -28.962 -13.2017 -78.6406
rradius 32.2565
rwrist 5.5408
rhand -15.7188 11.0194
rfingers 7.12502
rthumb 10.4714 -18.6998
lclavicle -4.28579e-014 2.52208e-015
lhumerus -34.9876 4.19933 83.8532
lradius 30.7598
lwrist -6.27214
lhand -19.1728 24.6615
lfingers 7.12502
lthumb 7.13832 54.5211
rfemur 5.91156 -1.25281 23.9222
rtibia 27.9976
rfoot -17.7738 -9.56018
rtoes -4.25503
lfemur -16.2113 3.88391 -23.1411
ltibia 19.0077
lfoot 2.48686 1.51604
ltoes -2.38705
518
root -17.6441 17.7005 13.6535 -1.53889 -85.4512 -0.589574
lowerback 9.68234 4.0039 0.486387
upperback -0.361895 5.36353 -0.236755
thorax -5.72956 2.61708 -1.2909
lowerneck -25.2426 -1.09443 -7.40744
upperneck 29.4073 -0.259057 4.53683
head 14.3466 -0.392491 3.04136
rclavicle 2.10386e-014 1.88845e-015
rhumerus -28.9073 -13.9385 -78.6992
rradius 31.7039
rwrist 5.70166
rhand -15.8037 11.2501
rfingers 7.12502
rthumb 10.3895 -18.4732
lclavicle 2.10386e-014 1.88845e-015
lhumerus -34.8959 4.90359 83.4335
lradius 30.5197
lwrist -6.83438
lhand -19.1601 24.5139
lfingers 7.12502
lthumb 7.15062 54.3731
rfemur 5.50409 -1.72787 23.4492
rtibia 29.6702
rfoot -17.4268 -9.19694
rtoes -4.24619
lfemur -15.5773 3.88519 -23.4872
ltibia 18.7668
lfoot 2.31934 1.05838
ltoes -2.95987
519
root -17.735 17.7092 13.6687 -3.87598 -85.0856 1.59843
lowerback 9.73015 3.92693 0.350269
upperback -0.335048 5.23895 -0.333075
thorax -5.73368 2.55799 -1.30034
lowerneck -25.1167 -1.03333 -7.52287
upperneck 29.4077 -0.182581 4.67997
head 14.3135 -0.353414 3.13314
rclavicle 3.31178e-014 1.19271e-015
rhumerus -28.8724 -14.7628 -78.7606
rradius 31.1904
rwrist 5.94162
rhand -16.0702 11.3211
rfingers 7.12502
rthumb 10.1324 -18.4149
lclavicle 3.31178e-014 1.19271e-015
lhumerus -34.8597 5.30365 83.1312
lradius 30.3738
lwrist -7.01074
lhand -19.4227 24.5298
lfingers 7.12502
lthumb 6.8971 54.3975
rfemur 5.02533 -2.19903 23.1308
rtibia 31.4779
rfoot -16.9381 -9.02139
rtoes -4.94034
lfemur -14.9254 4.00159 -23.733
ltibia 18.4129
lfoot 2.07657 0.229765
ltoes -4.76962
